<?xml version="1.0" encoding="UTF-8"?>
<svg width="1200pt" height="1200pt" version="1.1" viewBox="0 0 1200 1200" xmlns="http://www.w3.org/2000/svg">
 <path d="m1039.2 158.4v-79.199h-880.8v79.199zm-960 0h79.199v79.199l-79.199 0.003906zm960 0h79.199v79.199h-79.199zm-720 321.6h79.199v79.199h-79.199zm240 0h79.199v79.199h-79.199zm240 0h79.199v79.199h-79.199zm400.8-240v559.2h-79.199v79.199h-79.199v79.199l-321.6 0.003906v81.598h-79.199v79.199h-79.199v-79.199h-81.602v-79.199h-321.6v-79.199h-79.199v-81.602h-79.199v-559.2h79.199v480h79.199v79.199h321.6v79.199h79.199v79.199h79.199v-79.199h81.602v-79.199h319.2v-79.199h79.199v-480z"/>
</svg>
