<svg xmlns="http://www.w3.org/2000/svg" xmlns:xlink="http://www.w3.org/1999/xlink" version="1.1" x="0px" y="0px" viewBox="0 0 26 32.5" style="enable-background:new 0 0 26 26;" xml:space="preserve"><polygon points="16.5,9.5 15.5,9.5 15.5,7.5 14.5,7.5 14.5,9.5 5.5,9.5 5.5,10.5 16.5,10.5 "/><rect x="4.5" y="10.5" width="1" height="8"/><rect x="5.5" y="18.5" width="11" height="1"/><rect x="18.5" y="11.5" width="1" height="1"/><rect x="19.5" y="10.5" width="1" height="1"/><rect x="20.5" y="11.5" width="1" height="6"/><polygon points="17.5,15.5 17.5,13.5 18.5,13.5 18.5,12.5 17.5,12.5 17.5,10.5 16.5,10.5 16.5,16.5 16.5,18.5 17.5,18.5 17.5,16.5   18.5,16.5 18.5,15.5 "/><rect x="18.5" y="16.5" width="1" height="1"/><rect x="19.5" y="17.5" width="1" height="1"/><rect x="9.5" y="6.5" width="5" height="1"/><text x="0" y="41" fill="#000000" font-size="5px" font-weight="bold" font-family="'Helvetica Neue', Helvetica, Arial-Unicode, Arial, Sans-serif">Created by Yafet bouchagra</text><text x="0" y="46" fill="#000000" font-size="5px" font-weight="bold" font-family="'Helvetica Neue', Helvetica, Arial-Unicode, Arial, Sans-serif">from the Noun Project</text></svg>